<?xml version="1.0" standalone="no"?><!DOCTYPE svg PUBLIC "-//W3C//DTD SVG 1.1//EN" "http://www.w3.org/Graphics/SVG/1.1/DTD/svg11.dtd"><svg t="1603698421281" class="icon" viewBox="0 0 2133 1024" version="1.1" xmlns="http://www.w3.org/2000/svg" p-id="6981" xmlns:xlink="http://www.w3.org/1999/xlink" width="133.3125" height="64"><defs><style type="text/css"></style></defs><path d="M1621.452683 1023.997673H511.999767a508.646646 508.646646 0 0 1-362.029064-149.968841A508.646646 508.646646 0 0 1 0.001862 511.999767a508.646646 508.646646 0 0 1 149.968841-362.029064A508.646646 508.646646 0 0 1 511.999767 0.001862h1109.452916a508.739737 508.739737 0 0 1 362.07561 149.968841 508.646646 508.646646 0 0 1 149.968841 362.029064 508.646646 508.646646 0 0 1-149.968841 362.029065 508.739737 508.739737 0 0 1-362.07561 149.968841z m-411.692861-676.395779a146.24522 146.24522 0 0 0-150.387749 161.232795 146.664127 146.664127 0 0 0 150.015387 162.349882 143.731776 143.731776 0 0 0 109.148644-44.869635 171.193481 171.193481 0 0 0 41.285649-118.597333 145.547041 145.547041 0 0 0-150.061931-160.115709z m443.855639 5.585432a376.690823 376.690823 0 0 1 2.978897 54.364869v192.930119a381.671166 381.671166 0 0 1-3.351259 63.673922h80.057854a383.393341 383.393341 0 0 1-2.978897-64.791008V544.581452h69.817896a487.28237 487.28237 0 0 1 59.624484 2.606535v-68.886991a481.743484 481.743484 0 0 1-59.624484 2.606535h-69.817896v-61.067387h85.643286a507.762286 507.762286 0 0 1 62.184473 2.606535v-70.748801a439.480384 439.480384 0 0 1-62.556835 2.606534h-107.612651c-28.299521 0-38.72566-0.558543-54.364868-1.117086z m-255.998953 0a376.551187 376.551187 0 0 1 2.978897 54.364869v192.930119a379.623174 379.623174 0 0 1-3.351259 63.673922h80.057854a383.486431 383.486431 0 0 1-2.978897-64.791008V544.581452h69.817896a486.816918 486.816918 0 0 1 59.577939 2.606535v-68.886991a481.278031 481.278031 0 0 1-59.577939 2.606535h-69.817896v-61.067387h85.643286a506.272838 506.272838 0 0 1 62.184473 2.606535v-70.748801a444.274546 444.274546 0 0 1-62.556835 2.606534h-107.612651c-28.532247 0-38.958386-0.558543-54.551049-1.117086z m-187.670505 253.532054c-45.241997 0-73.355336-37.655119-73.355336-98.303598 0-59.717574 27.927158-96.814149 73.355336-96.814149s72.610612 36.16567 72.610612 96.814149-28.020249 98.350143-72.796793 98.350143z" fill="#D6D6D6" p-id="6982"></path><path d="M78.756449 511.999767a433.243319 433.243319 0 1 0 866.486637 0 433.243319 433.243319 0 1 0-866.486637 0Z" fill="#FFFFFF" p-id="6983"></path></svg>