<?xml version="1.0" standalone="no"?><!DOCTYPE svg PUBLIC "-//W3C//DTD SVG 1.1//EN" "http://www.w3.org/Graphics/SVG/1.1/DTD/svg11.dtd"><svg t="1603698399866" class="icon" viewBox="0 0 2133 1024" version="1.1" xmlns="http://www.w3.org/2000/svg" p-id="5586" xmlns:xlink="http://www.w3.org/1999/xlink" width="133.3125" height="64"><defs><style type="text/css"></style></defs><path d="M1621.452683 1023.997673H511.999767a508.646646 508.646646 0 0 1-362.029064-149.968841A508.646646 508.646646 0 0 1 0.001862 511.999767a508.646646 508.646646 0 0 1 149.968841-362.029064A508.646646 508.646646 0 0 1 511.999767 0.001862h1109.452916a508.739737 508.739737 0 0 1 362.07561 149.968841 508.646646 508.646646 0 0 1 149.968841 362.029064 508.646646 508.646646 0 0 1-149.968841 362.029065 508.739737 508.739737 0 0 1-362.07561 149.968841z m-1130.491375-676.395779a146.291765 146.291765 0 0 0-150.434294 161.232795 146.710673 146.710673 0 0 0 150.061932 162.349882 143.68523 143.68523 0 0 0 109.102099-44.869635 171.193481 171.193481 0 0 0 41.285649-118.597333 145.500496 145.500496 0 0 0-150.015386-160.115709z m268.100721 6.655973h-80.802578a411.599771 411.599771 0 0 1 2.978897 55.5285v195.862472a380.228263 380.228263 0 0 1-2.978897 58.460851h79.126949a400.987451 400.987451 0 0 1-2.978897-58.088489v-83.362568a529.033472 529.033472 0 0 0-2.55999-55.249229 448.835982 448.835982 0 0 0 26.670437 45.614359l68.886991 103.88903a397.729282 397.729282 0 0 1 27.927158 47.243443h81.547303a460.239572 460.239572 0 0 1-2.978897-55.481955v-197.724282a402.104537 402.104537 0 0 1 2.978897-56.645587h-79.126949a412.716857 412.716857 0 0 1 2.932351 56.645587v84.852016c0 20.24719 0.698179 37.236211 2.234173 55.156138a485.560195 485.560195 0 0 0-26.810072-44.311091l-70.748801-105.75084a250.506612 250.506612 0 0 1-26.298075-46.638355z m-268.100721 252.461513c-45.241997 0-73.355336-37.655119-73.355336-98.303598 0-59.717574 27.927158-96.814149 73.355336-96.814149s72.564067 36.16567 72.564067 96.814149-27.787523 98.350143-72.564067 98.350143z" fill="#6DCD7A" p-id="5587"></path><path d="M1189.698813 511.999767a433.243319 433.243319 0 1 0 866.486637 0 433.243319 433.243319 0 1 0-866.486637 0Z" fill="#FFFFFF" p-id="5588"></path></svg>